%TF.GenerationSoftware,KiCad,Pcbnew,7.0.7*%
%TF.CreationDate,2023-09-06T20:36:42+03:00*%
%TF.ProjectId,apollo,61706f6c-6c6f-42e6-9b69-6361645f7063,rev?*%
%TF.SameCoordinates,Original*%
%TF.FileFunction,Soldermask,Top*%
%TF.FilePolarity,Negative*%
%FSLAX46Y46*%
G04 Gerber Fmt 4.6, Leading zero omitted, Abs format (unit mm)*
G04 Created by KiCad (PCBNEW 7.0.7) date 2023-09-06 20:36:42*
%MOMM*%
%LPD*%
G01*
G04 APERTURE LIST*
G04 Aperture macros list*
%AMRoundRect*
0 Rectangle with rounded corners*
0 $1 Rounding radius*
0 $2 $3 $4 $5 $6 $7 $8 $9 X,Y pos of 4 corners*
0 Add a 4 corners polygon primitive as box body*
4,1,4,$2,$3,$4,$5,$6,$7,$8,$9,$2,$3,0*
0 Add four circle primitives for the rounded corners*
1,1,$1+$1,$2,$3*
1,1,$1+$1,$4,$5*
1,1,$1+$1,$6,$7*
1,1,$1+$1,$8,$9*
0 Add four rect primitives between the rounded corners*
20,1,$1+$1,$2,$3,$4,$5,0*
20,1,$1+$1,$4,$5,$6,$7,0*
20,1,$1+$1,$6,$7,$8,$9,0*
20,1,$1+$1,$8,$9,$2,$3,0*%
G04 Aperture macros list end*
%ADD10C,0.010000*%
%ADD11RoundRect,0.140000X-0.170000X0.140000X-0.170000X-0.140000X0.170000X-0.140000X0.170000X0.140000X0*%
%ADD12C,1.270000*%
%ADD13RoundRect,0.250001X0.759999X-0.499999X0.759999X0.499999X-0.759999X0.499999X-0.759999X-0.499999X0*%
%ADD14O,2.020000X1.500000*%
%ADD15R,1.700000X1.700000*%
%ADD16O,1.700000X1.700000*%
%ADD17RoundRect,0.200000X-0.275000X0.200000X-0.275000X-0.200000X0.275000X-0.200000X0.275000X0.200000X0*%
%ADD18RoundRect,0.225000X-0.250000X0.225000X-0.250000X-0.225000X0.250000X-0.225000X0.250000X0.225000X0*%
%ADD19RoundRect,0.140000X0.140000X0.170000X-0.140000X0.170000X-0.140000X-0.170000X0.140000X-0.170000X0*%
%ADD20RoundRect,0.250001X-0.499999X-0.759999X0.499999X-0.759999X0.499999X0.759999X-0.499999X0.759999X0*%
%ADD21O,1.500000X2.020000*%
%ADD22O,1.000000X1.800000*%
%ADD23O,1.000000X2.100000*%
%ADD24R,0.600000X1.240000*%
%ADD25R,0.300000X1.240000*%
%ADD26C,0.650000*%
%ADD27R,0.600000X1.100000*%
%ADD28RoundRect,0.225000X-0.225000X-0.250000X0.225000X-0.250000X0.225000X0.250000X-0.225000X0.250000X0*%
%ADD29C,2.250000*%
%ADD30RoundRect,0.250001X0.499999X0.759999X-0.499999X0.759999X-0.499999X-0.759999X0.499999X-0.759999X0*%
%ADD31R,1.000000X1.600000*%
%ADD32RoundRect,0.200000X0.275000X-0.200000X0.275000X0.200000X-0.275000X0.200000X-0.275000X-0.200000X0*%
%ADD33C,1.524000*%
%ADD34RoundRect,0.140000X0.170000X-0.140000X0.170000X0.140000X-0.170000X0.140000X-0.170000X-0.140000X0*%
%ADD35RoundRect,0.075000X-0.725000X-0.075000X0.725000X-0.075000X0.725000X0.075000X-0.725000X0.075000X0*%
%ADD36RoundRect,0.075000X-0.075000X-0.725000X0.075000X-0.725000X0.075000X0.725000X-0.075000X0.725000X0*%
%ADD37RoundRect,0.140000X-0.140000X-0.170000X0.140000X-0.170000X0.140000X0.170000X-0.140000X0.170000X0*%
%ADD38RoundRect,0.250001X-0.759999X0.499999X-0.759999X-0.499999X0.759999X-0.499999X0.759999X0.499999X0*%
%ADD39RoundRect,0.250000X-0.375000X-0.625000X0.375000X-0.625000X0.375000X0.625000X-0.375000X0.625000X0*%
%ADD40RoundRect,0.147500X0.172500X-0.147500X0.172500X0.147500X-0.172500X0.147500X-0.172500X-0.147500X0*%
%ADD41R,1.400000X1.200000*%
%ADD42RoundRect,0.150000X-0.512500X-0.150000X0.512500X-0.150000X0.512500X0.150000X-0.512500X0.150000X0*%
%ADD43RoundRect,0.225000X0.250000X-0.225000X0.250000X0.225000X-0.250000X0.225000X-0.250000X-0.225000X0*%
%ADD44RoundRect,0.062500X-0.350000X-0.062500X0.350000X-0.062500X0.350000X0.062500X-0.350000X0.062500X0*%
%ADD45RoundRect,0.062500X-0.062500X-0.350000X0.062500X-0.350000X0.062500X0.350000X-0.062500X0.350000X0*%
%ADD46R,2.500000X2.500000*%
%ADD47RoundRect,0.147500X-0.147500X-0.172500X0.147500X-0.172500X0.147500X0.172500X-0.147500X0.172500X0*%
%ADD48RoundRect,0.200000X0.200000X0.275000X-0.200000X0.275000X-0.200000X-0.275000X0.200000X-0.275000X0*%
%ADD49R,0.350000X0.590000*%
%ADD50R,0.590000X0.350000*%
%ADD51R,1.500000X2.000000*%
%ADD52R,3.800000X2.000000*%
%ADD53R,1.550000X1.000000*%
%ADD54RoundRect,0.200000X-0.200000X-0.275000X0.200000X-0.275000X0.200000X0.275000X-0.200000X0.275000X0*%
%ADD55RoundRect,0.250000X0.375000X0.625000X-0.375000X0.625000X-0.375000X-0.625000X0.375000X-0.625000X0*%
G04 APERTURE END LIST*
%TO.C,U5*%
D10*
X172957500Y-112633750D02*
X172482500Y-112633750D01*
X172482500Y-112183750D01*
X172957500Y-112183750D01*
X172957500Y-112633750D01*
G36*
X172957500Y-112633750D02*
G01*
X172482500Y-112633750D01*
X172482500Y-112183750D01*
X172957500Y-112183750D01*
X172957500Y-112633750D01*
G37*
X172957500Y-113133750D02*
X172482500Y-113133750D01*
X172482500Y-112683750D01*
X172957500Y-112683750D01*
X172957500Y-113133750D01*
G36*
X172957500Y-113133750D02*
G01*
X172482500Y-113133750D01*
X172482500Y-112683750D01*
X172957500Y-112683750D01*
X172957500Y-113133750D01*
G37*
X172957500Y-113633750D02*
X172482500Y-113633750D01*
X172482500Y-113183750D01*
X172957500Y-113183750D01*
X172957500Y-113633750D01*
G36*
X172957500Y-113633750D02*
G01*
X172482500Y-113633750D01*
X172482500Y-113183750D01*
X172957500Y-113183750D01*
X172957500Y-113633750D01*
G37*
X172957500Y-114133750D02*
X172482500Y-114133750D01*
X172482500Y-113683750D01*
X172957500Y-113683750D01*
X172957500Y-114133750D01*
G36*
X172957500Y-114133750D02*
G01*
X172482500Y-114133750D01*
X172482500Y-113683750D01*
X172957500Y-113683750D01*
X172957500Y-114133750D01*
G37*
X173457500Y-112633750D02*
X173007500Y-112633750D01*
X173007500Y-112158750D01*
X173457500Y-112158750D01*
X173457500Y-112633750D01*
G36*
X173457500Y-112633750D02*
G01*
X173007500Y-112633750D01*
X173007500Y-112158750D01*
X173457500Y-112158750D01*
X173457500Y-112633750D01*
G37*
X173457500Y-114158750D02*
X173007500Y-114158750D01*
X173007500Y-113683750D01*
X173457500Y-113683750D01*
X173457500Y-114158750D01*
G36*
X173457500Y-114158750D02*
G01*
X173007500Y-114158750D01*
X173007500Y-113683750D01*
X173457500Y-113683750D01*
X173457500Y-114158750D01*
G37*
X173957500Y-112633750D02*
X173507500Y-112633750D01*
X173507500Y-112158750D01*
X173957500Y-112158750D01*
X173957500Y-112633750D01*
G36*
X173957500Y-112633750D02*
G01*
X173507500Y-112633750D01*
X173507500Y-112158750D01*
X173957500Y-112158750D01*
X173957500Y-112633750D01*
G37*
X173957500Y-114158750D02*
X173507500Y-114158750D01*
X173507500Y-113683750D01*
X173957500Y-113683750D01*
X173957500Y-114158750D01*
G36*
X173957500Y-114158750D02*
G01*
X173507500Y-114158750D01*
X173507500Y-113683750D01*
X173957500Y-113683750D01*
X173957500Y-114158750D01*
G37*
X174482500Y-112633750D02*
X174007500Y-112633750D01*
X174007500Y-112183750D01*
X174482500Y-112183750D01*
X174482500Y-112633750D01*
G36*
X174482500Y-112633750D02*
G01*
X174007500Y-112633750D01*
X174007500Y-112183750D01*
X174482500Y-112183750D01*
X174482500Y-112633750D01*
G37*
X174482500Y-113133750D02*
X174007500Y-113133750D01*
X174007500Y-112683750D01*
X174482500Y-112683750D01*
X174482500Y-113133750D01*
G36*
X174482500Y-113133750D02*
G01*
X174007500Y-113133750D01*
X174007500Y-112683750D01*
X174482500Y-112683750D01*
X174482500Y-113133750D01*
G37*
X174482500Y-113633750D02*
X174007500Y-113633750D01*
X174007500Y-113183750D01*
X174482500Y-113183750D01*
X174482500Y-113633750D01*
G36*
X174482500Y-113633750D02*
G01*
X174007500Y-113633750D01*
X174007500Y-113183750D01*
X174482500Y-113183750D01*
X174482500Y-113633750D01*
G37*
X174482500Y-114133750D02*
X174007500Y-114133750D01*
X174007500Y-113683750D01*
X174482500Y-113683750D01*
X174482500Y-114133750D01*
G36*
X174482500Y-114133750D02*
G01*
X174007500Y-114133750D01*
X174007500Y-113683750D01*
X174482500Y-113683750D01*
X174482500Y-114133750D01*
G37*
%TD*%
D11*
%TO.C,C30*%
X187080000Y-107032500D03*
X187080000Y-107992500D03*
%TD*%
%TO.C,C31*%
X188350000Y-107032500D03*
X188350000Y-107992500D03*
%TD*%
D12*
%TO.C,J9*%
X119325000Y-105805000D03*
X119325000Y-84805000D03*
D13*
X121285000Y-102805000D03*
D14*
X121285000Y-99805000D03*
X121285000Y-96805000D03*
X121285000Y-93805000D03*
X121285000Y-90805000D03*
X121285000Y-87805000D03*
%TD*%
D15*
%TO.C,J16*%
X171450000Y-81280000D03*
D16*
X173990000Y-81280000D03*
X176530000Y-81280000D03*
X179070000Y-81280000D03*
%TD*%
D17*
%TO.C,R15*%
X178435000Y-73915000D03*
X178435000Y-75565000D03*
%TD*%
D11*
%TO.C,C10*%
X141605000Y-92230000D03*
X141605000Y-93190000D03*
%TD*%
D18*
%TO.C,C13*%
X190730500Y-78600000D03*
X190730500Y-80150000D03*
%TD*%
D19*
%TO.C,C15*%
X168755000Y-106045000D03*
X167795000Y-106045000D03*
%TD*%
D12*
%TO.C,J11*%
X125970000Y-61540000D03*
X146970000Y-61540000D03*
D20*
X128970000Y-63500000D03*
D21*
X131970000Y-63500000D03*
X134970000Y-63500000D03*
X137970000Y-63500000D03*
X140970000Y-63500000D03*
X143970000Y-63500000D03*
%TD*%
D22*
%TO.C,J2*%
X196570500Y-61650000D03*
D23*
X196570500Y-65850000D03*
D22*
X205210500Y-61650000D03*
D23*
X205210500Y-65850000D03*
D24*
X204090500Y-66450000D03*
X203290500Y-66450000D03*
D25*
X202640500Y-66450000D03*
X201640500Y-66450000D03*
X200140500Y-66450000D03*
X199140500Y-66450000D03*
D24*
X198490500Y-66450000D03*
X197690500Y-66450000D03*
X197690500Y-66450000D03*
X198490500Y-66450000D03*
D25*
X199640500Y-66450000D03*
X200640500Y-66450000D03*
X201140500Y-66450000D03*
X202140500Y-66450000D03*
D24*
X203290500Y-66450000D03*
X204090500Y-66450000D03*
D26*
X198000500Y-65330000D03*
X203780500Y-65330000D03*
%TD*%
D27*
%TO.C,Y3*%
X187080000Y-104817500D03*
X188480000Y-104817500D03*
%TD*%
D12*
%TO.C,J15*%
X203090000Y-128140000D03*
X203090000Y-107140000D03*
D13*
X205050000Y-125140000D03*
D14*
X205050000Y-122140000D03*
X205050000Y-119140000D03*
X205050000Y-116140000D03*
X205050000Y-113140000D03*
X205050000Y-110140000D03*
%TD*%
D28*
%TO.C,C26*%
X150260000Y-78994000D03*
X151810000Y-78994000D03*
%TD*%
D29*
%TO.C,J5*%
X207645000Y-98425000D03*
X210185000Y-95885000D03*
X205105000Y-95885000D03*
X210185000Y-100965000D03*
X205105000Y-100965000D03*
%TD*%
D12*
%TO.C,J13*%
X170005000Y-128960000D03*
X149005000Y-128960000D03*
D30*
X167005000Y-127000000D03*
D21*
X164005000Y-127000000D03*
X161005000Y-127000000D03*
X158005000Y-127000000D03*
X155005000Y-127000000D03*
X152005000Y-127000000D03*
%TD*%
D31*
%TO.C,SW2*%
X144145000Y-103365000D03*
X141645000Y-103365000D03*
X139145000Y-103365000D03*
X144145000Y-100965000D03*
X141645000Y-100965000D03*
X139145000Y-100965000D03*
%TD*%
D19*
%TO.C,C33*%
X199870000Y-99695000D03*
X198910000Y-99695000D03*
%TD*%
D32*
%TO.C,R17*%
X160020000Y-75755000D03*
X160020000Y-74105000D03*
%TD*%
D17*
%TO.C,R13*%
X165100000Y-74105000D03*
X165100000Y-75755000D03*
%TD*%
D33*
%TO.C,SW4*%
X135255000Y-76200000D03*
X133255000Y-76200000D03*
X131255000Y-76200000D03*
X131255000Y-71700000D03*
X133255000Y-71700000D03*
X135255000Y-71700000D03*
%TD*%
D34*
%TO.C,C20*%
X160020000Y-113665000D03*
X160020000Y-112705000D03*
%TD*%
D35*
%TO.C,U1*%
X154885000Y-87980000D03*
X154885000Y-88480000D03*
X154885000Y-88980000D03*
X154885000Y-89480000D03*
X154885000Y-89980000D03*
X154885000Y-90480000D03*
X154885000Y-90980000D03*
X154885000Y-91480000D03*
X154885000Y-91980000D03*
X154885000Y-92480000D03*
X154885000Y-92980000D03*
X154885000Y-93480000D03*
X154885000Y-93980000D03*
X154885000Y-94480000D03*
X154885000Y-94980000D03*
X154885000Y-95480000D03*
X154885000Y-95980000D03*
X154885000Y-96480000D03*
X154885000Y-96980000D03*
X154885000Y-97480000D03*
X154885000Y-97980000D03*
X154885000Y-98480000D03*
X154885000Y-98980000D03*
X154885000Y-99480000D03*
X154885000Y-99980000D03*
D36*
X156560000Y-101655000D03*
X157060000Y-101655000D03*
X157560000Y-101655000D03*
X158060000Y-101655000D03*
X158560000Y-101655000D03*
X159060000Y-101655000D03*
X159560000Y-101655000D03*
X160060000Y-101655000D03*
X160560000Y-101655000D03*
X161060000Y-101655000D03*
X161560000Y-101655000D03*
X162060000Y-101655000D03*
X162560000Y-101655000D03*
X163060000Y-101655000D03*
X163560000Y-101655000D03*
X164060000Y-101655000D03*
X164560000Y-101655000D03*
X165060000Y-101655000D03*
X165560000Y-101655000D03*
X166060000Y-101655000D03*
X166560000Y-101655000D03*
X167060000Y-101655000D03*
X167560000Y-101655000D03*
X168060000Y-101655000D03*
X168560000Y-101655000D03*
D35*
X170235000Y-99980000D03*
X170235000Y-99480000D03*
X170235000Y-98980000D03*
X170235000Y-98480000D03*
X170235000Y-97980000D03*
X170235000Y-97480000D03*
X170235000Y-96980000D03*
X170235000Y-96480000D03*
X170235000Y-95980000D03*
X170235000Y-95480000D03*
X170235000Y-94980000D03*
X170235000Y-94480000D03*
X170235000Y-93980000D03*
X170235000Y-93480000D03*
X170235000Y-92980000D03*
X170235000Y-92480000D03*
X170235000Y-91980000D03*
X170235000Y-91480000D03*
X170235000Y-90980000D03*
X170235000Y-90480000D03*
X170235000Y-89980000D03*
X170235000Y-89480000D03*
X170235000Y-88980000D03*
X170235000Y-88480000D03*
X170235000Y-87980000D03*
D36*
X168560000Y-86305000D03*
X168060000Y-86305000D03*
X167560000Y-86305000D03*
X167060000Y-86305000D03*
X166560000Y-86305000D03*
X166060000Y-86305000D03*
X165560000Y-86305000D03*
X165060000Y-86305000D03*
X164560000Y-86305000D03*
X164060000Y-86305000D03*
X163560000Y-86305000D03*
X163060000Y-86305000D03*
X162560000Y-86305000D03*
X162060000Y-86305000D03*
X161560000Y-86305000D03*
X161060000Y-86305000D03*
X160560000Y-86305000D03*
X160060000Y-86305000D03*
X159560000Y-86305000D03*
X159060000Y-86305000D03*
X158560000Y-86305000D03*
X158060000Y-86305000D03*
X157560000Y-86305000D03*
X157060000Y-86305000D03*
X156560000Y-86305000D03*
%TD*%
D37*
%TO.C,C35*%
X198910000Y-97790000D03*
X199870000Y-97790000D03*
%TD*%
D12*
%TO.C,J12*%
X119325000Y-128665000D03*
X119325000Y-107665000D03*
D13*
X121285000Y-125665000D03*
D14*
X121285000Y-122665000D03*
X121285000Y-119665000D03*
X121285000Y-116665000D03*
X121285000Y-113665000D03*
X121285000Y-110665000D03*
%TD*%
D34*
%TO.C,C14*%
X153670000Y-103350000D03*
X153670000Y-102390000D03*
%TD*%
D11*
%TO.C,C2*%
X172720000Y-86515000D03*
X172720000Y-87475000D03*
%TD*%
D28*
%TO.C,C25*%
X141433000Y-78740000D03*
X142983000Y-78740000D03*
%TD*%
D12*
%TO.C,J14*%
X205685000Y-89755000D03*
X205685000Y-68755000D03*
D13*
X207645000Y-86755000D03*
D14*
X207645000Y-83755000D03*
X207645000Y-80755000D03*
X207645000Y-77755000D03*
X207645000Y-74755000D03*
X207645000Y-71755000D03*
%TD*%
D11*
%TO.C,33pF1*%
X141605000Y-96195000D03*
X141605000Y-97155000D03*
%TD*%
D19*
%TO.C,C34*%
X199870000Y-101600000D03*
X198910000Y-101600000D03*
%TD*%
D12*
%TO.C,J7*%
X200660000Y-107315000D03*
X200660000Y-128315000D03*
D38*
X198700000Y-110315000D03*
D14*
X198700000Y-113315000D03*
X198700000Y-116315000D03*
X198700000Y-119315000D03*
X198700000Y-122315000D03*
X198700000Y-125315000D03*
%TD*%
D11*
%TO.C,C23*%
X173355000Y-116206250D03*
X173355000Y-117166250D03*
%TD*%
D17*
%TO.C,R1*%
X200560750Y-86154750D03*
X200560750Y-87804750D03*
%TD*%
D39*
%TO.C,D7*%
X156715000Y-71187000D03*
X159515000Y-71187000D03*
%TD*%
D34*
%TO.C,C1*%
X154940000Y-83960000D03*
X154940000Y-84920000D03*
%TD*%
D40*
%TO.C,L1*%
X191770000Y-101450000D03*
X191770000Y-100480000D03*
%TD*%
D19*
%TO.C,C5*%
X152245000Y-92710000D03*
X151285000Y-92710000D03*
%TD*%
D17*
%TO.C,R14*%
X173990000Y-73915000D03*
X173990000Y-75565000D03*
%TD*%
D41*
%TO.C,Y1*%
X143850000Y-90590000D03*
X146050000Y-90590000D03*
X146050000Y-88890000D03*
X143850000Y-88890000D03*
%TD*%
D12*
%TO.C,J3*%
X149005000Y-61540000D03*
X170005000Y-61540000D03*
D20*
X152005000Y-63500000D03*
D21*
X155005000Y-63500000D03*
X158005000Y-63500000D03*
X161005000Y-63500000D03*
X164005000Y-63500000D03*
X167005000Y-63500000D03*
%TD*%
D42*
%TO.C,U4*%
X195308000Y-70665000D03*
X195308000Y-71615000D03*
X195308000Y-72565000D03*
X197583000Y-72565000D03*
X197583000Y-71615000D03*
X197583000Y-70665000D03*
%TD*%
D11*
%TO.C,C9*%
X141605000Y-86035000D03*
X141605000Y-86995000D03*
%TD*%
D43*
%TO.C,C12*%
X201525500Y-80010000D03*
X201525500Y-78460000D03*
%TD*%
D44*
%TO.C,U6*%
X185142500Y-99340000D03*
X185142500Y-99840000D03*
X185142500Y-100340000D03*
X185142500Y-100840000D03*
X185142500Y-101340000D03*
D45*
X186080000Y-102277500D03*
X186580000Y-102277500D03*
X187080000Y-102277500D03*
X187580000Y-102277500D03*
X188080000Y-102277500D03*
D44*
X189017500Y-101340000D03*
X189017500Y-100840000D03*
X189017500Y-100340000D03*
X189017500Y-99840000D03*
X189017500Y-99340000D03*
D45*
X188080000Y-98402500D03*
X187580000Y-98402500D03*
X187080000Y-98402500D03*
X186580000Y-98402500D03*
X186080000Y-98402500D03*
D46*
X187080000Y-100340000D03*
%TD*%
D12*
%TO.C,J10*%
X119325000Y-82375000D03*
X119325000Y-61375000D03*
D13*
X121285000Y-79375000D03*
D14*
X121285000Y-76375000D03*
X121285000Y-73375000D03*
X121285000Y-70375000D03*
X121285000Y-67375000D03*
X121285000Y-64375000D03*
%TD*%
D47*
%TO.C,L2*%
X195730000Y-99695000D03*
X196700000Y-99695000D03*
%TD*%
D33*
%TO.C,SW5*%
X144113000Y-76200000D03*
X142113000Y-76200000D03*
X140113000Y-76200000D03*
X140113000Y-71700000D03*
X142113000Y-71700000D03*
X144113000Y-71700000D03*
%TD*%
D48*
%TO.C,R3*%
X188340000Y-69850000D03*
X186690000Y-69850000D03*
%TD*%
D17*
%TO.C,R16*%
X168910000Y-74105000D03*
X168910000Y-75755000D03*
%TD*%
D19*
%TO.C,C3*%
X152245000Y-90170000D03*
X151285000Y-90170000D03*
%TD*%
D34*
%TO.C,C6*%
X154940000Y-103350000D03*
X154940000Y-102390000D03*
%TD*%
D49*
%TO.C,U3*%
X161520000Y-118005000D03*
X161020000Y-118005000D03*
X160520000Y-118005000D03*
X160020000Y-118005000D03*
X159520000Y-118005000D03*
X159020000Y-118005000D03*
X158520000Y-118005000D03*
D50*
X158105000Y-116840000D03*
D49*
X158520000Y-115675000D03*
X159020000Y-115675000D03*
X159520000Y-115675000D03*
X160020000Y-115675000D03*
X160520000Y-115675000D03*
X161020000Y-115675000D03*
X161520000Y-115675000D03*
D50*
X161935000Y-116840000D03*
%TD*%
D19*
%TO.C,C7*%
X168755000Y-104775000D03*
X167795000Y-104775000D03*
%TD*%
D17*
%TO.C,R12*%
X156210000Y-74105000D03*
X156210000Y-75755000D03*
%TD*%
D33*
%TO.C,SW6*%
X152940000Y-76200000D03*
X150940000Y-76200000D03*
X148940000Y-76200000D03*
X148940000Y-71700000D03*
X150940000Y-71700000D03*
X152940000Y-71700000D03*
%TD*%
D51*
%TO.C,U2*%
X198745500Y-76720000D03*
X196445500Y-76720000D03*
D52*
X196445500Y-83020000D03*
D51*
X194145500Y-76720000D03*
%TD*%
D43*
%TO.C,C11*%
X153585000Y-117690000D03*
X153585000Y-116140000D03*
%TD*%
D53*
%TO.C,SW1*%
X145245000Y-116205000D03*
X150495000Y-116205000D03*
X145245000Y-117905000D03*
X150495000Y-117905000D03*
%TD*%
D37*
%TO.C,C32*%
X198910000Y-95885000D03*
X199870000Y-95885000D03*
%TD*%
D39*
%TO.C,D5*%
X174625000Y-71120000D03*
X177425000Y-71120000D03*
%TD*%
D11*
%TO.C,C17*%
X172720000Y-88420000D03*
X172720000Y-89380000D03*
%TD*%
%TO.C,C36*%
X175260000Y-116206250D03*
X175260000Y-117166250D03*
%TD*%
D12*
%TO.C,J4*%
X129485000Y-106900000D03*
X129485000Y-85900000D03*
D13*
X131445000Y-103900000D03*
D14*
X131445000Y-100900000D03*
X131445000Y-97900000D03*
X131445000Y-94900000D03*
X131445000Y-91900000D03*
X131445000Y-88900000D03*
%TD*%
D34*
%TO.C,C22*%
X171450000Y-117166250D03*
X171450000Y-116206250D03*
%TD*%
D54*
%TO.C,R5*%
X137795000Y-92045000D03*
X139445000Y-92045000D03*
%TD*%
%TO.C,R10*%
X186690000Y-109855000D03*
X188340000Y-109855000D03*
%TD*%
D19*
%TO.C,C21*%
X160655000Y-119380000D03*
X159695000Y-119380000D03*
%TD*%
D12*
%TO.C,J8*%
X192865000Y-128960000D03*
X171865000Y-128960000D03*
D30*
X189865000Y-127000000D03*
D21*
X186865000Y-127000000D03*
X183865000Y-127000000D03*
X180865000Y-127000000D03*
X177865000Y-127000000D03*
X174865000Y-127000000D03*
%TD*%
D55*
%TO.C,D1*%
X197845500Y-88125000D03*
X195045500Y-88125000D03*
%TD*%
D34*
%TO.C,33pF2*%
X141605000Y-89860000D03*
X141605000Y-88900000D03*
%TD*%
D39*
%TO.C,D6*%
X165605000Y-71120000D03*
X168405000Y-71120000D03*
%TD*%
D43*
%TO.C,C8*%
X153670000Y-83820000D03*
X153670000Y-85370000D03*
%TD*%
D11*
%TO.C,C4*%
X173990000Y-86515000D03*
X173990000Y-87475000D03*
%TD*%
D48*
%TO.C,R2*%
X188340000Y-71755000D03*
X186690000Y-71755000D03*
%TD*%
D47*
%TO.C,L3*%
X195880000Y-95885000D03*
X196850000Y-95885000D03*
%TD*%
D32*
%TO.C,R11*%
X189620000Y-95102500D03*
X189620000Y-96752500D03*
%TD*%
D54*
%TO.C,R6*%
X137795000Y-94555000D03*
X139445000Y-94555000D03*
%TD*%
D19*
%TO.C,C28*%
X186135000Y-96562500D03*
X185175000Y-96562500D03*
%TD*%
D11*
%TO.C,C27*%
X190255000Y-99582500D03*
X190255000Y-98622500D03*
%TD*%
D12*
%TO.C,J1*%
X146970000Y-128960000D03*
X125970000Y-128960000D03*
D30*
X143970000Y-127000000D03*
D21*
X140970000Y-127000000D03*
X137970000Y-127000000D03*
X134970000Y-127000000D03*
X131970000Y-127000000D03*
X128970000Y-127000000D03*
%TD*%
D34*
%TO.C,C18*%
X151765000Y-98115000D03*
X151765000Y-97155000D03*
%TD*%
D19*
%TO.C,C16*%
X168755000Y-103505000D03*
X167795000Y-103505000D03*
%TD*%
D11*
%TO.C,C19*%
X150495000Y-97155000D03*
X150495000Y-98115000D03*
%TD*%
D31*
%TO.C,SW3*%
X130175000Y-115075000D03*
X132675000Y-115075000D03*
X135175000Y-115075000D03*
X130175000Y-117475000D03*
X132675000Y-117475000D03*
X135175000Y-117475000D03*
%TD*%
D12*
%TO.C,J6*%
X172500000Y-61540000D03*
X193500000Y-61540000D03*
D20*
X175500000Y-63500000D03*
D21*
X178500000Y-63500000D03*
X181500000Y-63500000D03*
X184500000Y-63500000D03*
X187500000Y-63500000D03*
X190500000Y-63500000D03*
%TD*%
D37*
%TO.C,C29*%
X187080000Y-96562500D03*
X188040000Y-96562500D03*
%TD*%
D28*
%TO.C,C24*%
X132575000Y-78740000D03*
X134125000Y-78740000D03*
%TD*%
D54*
%TO.C,R4*%
X137795000Y-89535000D03*
X139445000Y-89535000D03*
%TD*%
D41*
%TO.C,Y2*%
X143850000Y-95885000D03*
X146050000Y-95885000D03*
X146050000Y-94185000D03*
X143850000Y-94185000D03*
%TD*%
M02*
