%TF.GenerationSoftware,KiCad,Pcbnew,7.0.7*%
%TF.CreationDate,2023-09-06T20:36:42+03:00*%
%TF.ProjectId,apollo,61706f6c-6c6f-42e6-9b69-6361645f7063,rev?*%
%TF.SameCoordinates,Original*%
%TF.FileFunction,Soldermask,Bot*%
%TF.FilePolarity,Negative*%
%FSLAX46Y46*%
G04 Gerber Fmt 4.6, Leading zero omitted, Abs format (unit mm)*
G04 Created by KiCad (PCBNEW 7.0.7) date 2023-09-06 20:36:42*
%MOMM*%
%LPD*%
G01*
G04 APERTURE LIST*
G04 Aperture macros list*
%AMRoundRect*
0 Rectangle with rounded corners*
0 $1 Rounding radius*
0 $2 $3 $4 $5 $6 $7 $8 $9 X,Y pos of 4 corners*
0 Add a 4 corners polygon primitive as box body*
4,1,4,$2,$3,$4,$5,$6,$7,$8,$9,$2,$3,0*
0 Add four circle primitives for the rounded corners*
1,1,$1+$1,$2,$3*
1,1,$1+$1,$4,$5*
1,1,$1+$1,$6,$7*
1,1,$1+$1,$8,$9*
0 Add four rect primitives between the rounded corners*
20,1,$1+$1,$2,$3,$4,$5,0*
20,1,$1+$1,$4,$5,$6,$7,0*
20,1,$1+$1,$6,$7,$8,$9,0*
20,1,$1+$1,$8,$9,$2,$3,0*%
G04 Aperture macros list end*
%ADD10C,1.270000*%
%ADD11RoundRect,0.250001X0.759999X-0.499999X0.759999X0.499999X-0.759999X0.499999X-0.759999X-0.499999X0*%
%ADD12O,2.020000X1.500000*%
%ADD13R,1.700000X1.700000*%
%ADD14O,1.700000X1.700000*%
%ADD15RoundRect,0.250001X-0.499999X-0.759999X0.499999X-0.759999X0.499999X0.759999X-0.499999X0.759999X0*%
%ADD16O,1.500000X2.020000*%
%ADD17O,1.000000X1.800000*%
%ADD18O,1.000000X2.100000*%
%ADD19C,0.650000*%
%ADD20C,2.250000*%
%ADD21RoundRect,0.250001X0.499999X0.759999X-0.499999X0.759999X-0.499999X-0.759999X0.499999X-0.759999X0*%
%ADD22C,1.524000*%
%ADD23RoundRect,0.250001X-0.759999X0.499999X-0.759999X-0.499999X0.759999X-0.499999X0.759999X0.499999X0*%
G04 APERTURE END LIST*
D10*
%TO.C,J9*%
X119325000Y-105805000D03*
X119325000Y-84805000D03*
D11*
X121285000Y-102805000D03*
D12*
X121285000Y-99805000D03*
X121285000Y-96805000D03*
X121285000Y-93805000D03*
X121285000Y-90805000D03*
X121285000Y-87805000D03*
%TD*%
D13*
%TO.C,J16*%
X171450000Y-81280000D03*
D14*
X173990000Y-81280000D03*
X176530000Y-81280000D03*
X179070000Y-81280000D03*
%TD*%
D10*
%TO.C,J11*%
X125970000Y-61540000D03*
X146970000Y-61540000D03*
D15*
X128970000Y-63500000D03*
D16*
X131970000Y-63500000D03*
X134970000Y-63500000D03*
X137970000Y-63500000D03*
X140970000Y-63500000D03*
X143970000Y-63500000D03*
%TD*%
D17*
%TO.C,J2*%
X196570500Y-61650000D03*
D18*
X196570500Y-65850000D03*
D17*
X205210500Y-61650000D03*
D18*
X205210500Y-65850000D03*
D19*
X198000500Y-65330000D03*
X203780500Y-65330000D03*
%TD*%
D10*
%TO.C,J15*%
X203090000Y-128140000D03*
X203090000Y-107140000D03*
D11*
X205050000Y-125140000D03*
D12*
X205050000Y-122140000D03*
X205050000Y-119140000D03*
X205050000Y-116140000D03*
X205050000Y-113140000D03*
X205050000Y-110140000D03*
%TD*%
D20*
%TO.C,J5*%
X207645000Y-98425000D03*
X210185000Y-95885000D03*
X205105000Y-95885000D03*
X210185000Y-100965000D03*
X205105000Y-100965000D03*
%TD*%
D10*
%TO.C,J13*%
X170005000Y-128960000D03*
X149005000Y-128960000D03*
D21*
X167005000Y-127000000D03*
D16*
X164005000Y-127000000D03*
X161005000Y-127000000D03*
X158005000Y-127000000D03*
X155005000Y-127000000D03*
X152005000Y-127000000D03*
%TD*%
D22*
%TO.C,SW4*%
X135255000Y-76200000D03*
X133255000Y-76200000D03*
X131255000Y-76200000D03*
X131255000Y-71700000D03*
X133255000Y-71700000D03*
X135255000Y-71700000D03*
%TD*%
D10*
%TO.C,J12*%
X119325000Y-128665000D03*
X119325000Y-107665000D03*
D11*
X121285000Y-125665000D03*
D12*
X121285000Y-122665000D03*
X121285000Y-119665000D03*
X121285000Y-116665000D03*
X121285000Y-113665000D03*
X121285000Y-110665000D03*
%TD*%
D10*
%TO.C,J14*%
X205685000Y-89755000D03*
X205685000Y-68755000D03*
D11*
X207645000Y-86755000D03*
D12*
X207645000Y-83755000D03*
X207645000Y-80755000D03*
X207645000Y-77755000D03*
X207645000Y-74755000D03*
X207645000Y-71755000D03*
%TD*%
D10*
%TO.C,J7*%
X200660000Y-107315000D03*
X200660000Y-128315000D03*
D23*
X198700000Y-110315000D03*
D12*
X198700000Y-113315000D03*
X198700000Y-116315000D03*
X198700000Y-119315000D03*
X198700000Y-122315000D03*
X198700000Y-125315000D03*
%TD*%
D10*
%TO.C,J3*%
X149005000Y-61540000D03*
X170005000Y-61540000D03*
D15*
X152005000Y-63500000D03*
D16*
X155005000Y-63500000D03*
X158005000Y-63500000D03*
X161005000Y-63500000D03*
X164005000Y-63500000D03*
X167005000Y-63500000D03*
%TD*%
D10*
%TO.C,J10*%
X119325000Y-82375000D03*
X119325000Y-61375000D03*
D11*
X121285000Y-79375000D03*
D12*
X121285000Y-76375000D03*
X121285000Y-73375000D03*
X121285000Y-70375000D03*
X121285000Y-67375000D03*
X121285000Y-64375000D03*
%TD*%
D22*
%TO.C,SW5*%
X144113000Y-76200000D03*
X142113000Y-76200000D03*
X140113000Y-76200000D03*
X140113000Y-71700000D03*
X142113000Y-71700000D03*
X144113000Y-71700000D03*
%TD*%
%TO.C,SW6*%
X152940000Y-76200000D03*
X150940000Y-76200000D03*
X148940000Y-76200000D03*
X148940000Y-71700000D03*
X150940000Y-71700000D03*
X152940000Y-71700000D03*
%TD*%
D10*
%TO.C,J4*%
X129485000Y-106900000D03*
X129485000Y-85900000D03*
D11*
X131445000Y-103900000D03*
D12*
X131445000Y-100900000D03*
X131445000Y-97900000D03*
X131445000Y-94900000D03*
X131445000Y-91900000D03*
X131445000Y-88900000D03*
%TD*%
D10*
%TO.C,J8*%
X192865000Y-128960000D03*
X171865000Y-128960000D03*
D21*
X189865000Y-127000000D03*
D16*
X186865000Y-127000000D03*
X183865000Y-127000000D03*
X180865000Y-127000000D03*
X177865000Y-127000000D03*
X174865000Y-127000000D03*
%TD*%
D10*
%TO.C,J1*%
X146970000Y-128960000D03*
X125970000Y-128960000D03*
D21*
X143970000Y-127000000D03*
D16*
X140970000Y-127000000D03*
X137970000Y-127000000D03*
X134970000Y-127000000D03*
X131970000Y-127000000D03*
X128970000Y-127000000D03*
%TD*%
D10*
%TO.C,J6*%
X172500000Y-61540000D03*
X193500000Y-61540000D03*
D15*
X175500000Y-63500000D03*
D16*
X178500000Y-63500000D03*
X181500000Y-63500000D03*
X184500000Y-63500000D03*
X187500000Y-63500000D03*
X190500000Y-63500000D03*
%TD*%
M02*
